<?xml version="1.0" standalone="no"?>
<!DOCTYPE svg PUBLIC "-//W3C//DTD SVG 20010904//EN"
 "http://www.w3.org/TR/2001/REC-SVG-20010904/DTD/svg10.dtd">
<svg version="1.0" xmlns="http://www.w3.org/2000/svg"
 width="806.000000pt" height="768.000000pt" viewBox="0 0 806.000000 768.000000"
 preserveAspectRatio="xMidYMid meet">

<g transform="translate(0.000000,768.000000) scale(0.100000,-0.100000)"
fill="#000000" stroke="none">
<path d="M4751 7544 c-50 -63 -15 -131 137 -272 221 -204 414 -397 507 -507
51 -61 108 -123 128 -138 19 -14 48 -47 65 -73 l31 -46 -35 -56 c-20 -30 -89
-121 -154 -201 -65 -80 -169 -225 -231 -321 -282 -438 -352 -551 -415 -666
l-66 -124 -823 0 -823 0 -54 73 c-30 39 -103 141 -163 225 -279 393 -474 563
-731 642 -69 20 -71 22 -87 68 -10 26 -32 123 -51 215 -59 288 -136 409 -414
648 -56 49 -133 121 -170 161 -76 81 -136 128 -164 128 -15 0 -18 -8 -18 -42
0 -67 35 -123 145 -232 l102 -101 12 -70 c22 -124 27 -134 140 -248 l106 -108
3 -87 c2 -48 -1 -112 -5 -142 l-9 -55 -45 1 c-40 2 -232 71 -265 96 -7 5 -22
49 -34 99 -32 130 -46 146 -169 196 -125 50 -148 70 -157 132 -8 54 -24 88
-71 153 -39 53 -115 108 -151 108 -22 0 -24 -3 -18 -36 33 -170 283 -623 434
-786 54 -57 81 -75 204 -138 201 -103 265 -145 287 -189 10 -20 29 -85 41
-146 15 -77 32 -128 56 -171 39 -71 142 -207 239 -314 l67 -75 -1061 -3 -1061
-2 0 -23 c0 -30 139 -163 260 -249 121 -86 508 -318 670 -402 183 -95 302
-146 567 -241 602 -217 757 -296 939 -479 177 -179 278 -369 291 -551 7 -105
-8 -182 -57 -283 -107 -224 -305 -428 -720 -742 l-135 -102 -66 -225 c-44
-148 -63 -226 -55 -229 6 -2 215 -5 464 -6 l454 -3 -190 -285 c-105 -157 -231
-336 -280 -398 -113 -143 -152 -217 -152 -286 0 -164 248 -378 456 -394 l60
-4 51 73 c28 41 81 135 118 209 141 282 411 768 547 985 l63 100 740 0 739 0
84 -95 c46 -52 158 -194 250 -315 209 -276 378 -487 472 -590 40 -44 116 -134
169 -200 109 -138 212 -245 235 -245 16 0 62 55 68 81 3 19 -808 1057 -969
1241 -57 64 -103 119 -103 122 0 3 103 6 229 6 l228 0 79 -107 c43 -60 194
-252 334 -428 141 -176 291 -369 335 -429 44 -61 96 -127 116 -148 l36 -39 49
19 c49 18 49 18 48 64 0 55 -35 113 -136 225 -93 104 -312 376 -481 598 -76
99 -149 194 -163 212 l-26 32 360 -5 360 -6 13 23 c29 52 13 230 -43 472 -18
79 -22 88 -46 93 -39 10 -118 51 -182 94 -84 57 -357 317 -400 379 -83 123
-166 324 -206 496 -27 119 -25 305 5 410 59 211 249 447 494 613 218 147 362
217 972 466 959 392 912 369 929 452 6 25 3 33 -11 39 -10 4 -555 7 -1212 6
-656 -2 -1192 1 -1190 6 2 4 50 77 107 161 165 245 229 354 332 567 100 205
190 355 212 355 46 0 222 -110 478 -300 190 -141 250 -180 275 -180 61 0 147
108 264 332 106 200 141 338 104 407 -22 42 -82 74 -381 202 -117 51 -239 109
-270 129 -31 20 -120 96 -197 169 -111 106 -154 139 -210 165 -140 66 -300
110 -466 127 -88 9 -143 24 -379 104 -151 51 -307 107 -346 123 -64 27 -184
62 -211 62 -7 0 -21 -12 -32 -26z m-2497 -1823 c113 -39 185 -105 429 -391
l159 -185 -239 -3 c-235 -3 -238 -2 -256 20 -34 41 -83 132 -145 269 -69 152
-88 219 -78 273 6 33 10 36 42 36 19 0 59 -9 88 -19z"/>
</g>
</svg>
