<?xml version="1.0" standalone="no"?>
<!DOCTYPE svg PUBLIC "-//W3C//DTD SVG 20010904//EN"
 "http://www.w3.org/TR/2001/REC-SVG-20010904/DTD/svg10.dtd">
<svg version="1.0" xmlns="http://www.w3.org/2000/svg"
 width="654.000000pt" height="800.000000pt" viewBox="0 0 654.000000 800.000000"
 preserveAspectRatio="xMidYMid meet">

<g transform="translate(0.000000,800.000000) scale(0.100000,-0.100000)"
fill="#000000" stroke="none">
<path d="M3086 7982 c-21 -7 -84 -19 -140 -27 -632 -95 -1310 -471 -1862
-1036 -111 -113 -134 -154 -134 -232 0 -41 43 -204 76 -291 4 -9 -24 -18 -102
-31 -142 -24 -201 -54 -232 -117 -23 -45 -23 -50 -12 -140 18 -142 0 -241 -85
-458 -21 -52 -21 -1199 -1 -1238 18 -34 49 -62 109 -96 26 -15 47 -30 47 -34
0 -4 -35 -13 -77 -20 -88 -14 -120 -31 -130 -70 -3 -15 15 -724 41 -1575 26
-852 45 -1551 42 -1554 -2 -3 -95 57 -206 133 l-202 138 4 53 c2 29 2 53 1 53
-7 0 -113 -150 -113 -159 0 -5 5 -11 11 -13 13 -4 65 -126 190 -440 l19 -48
-93 51 c-169 92 -154 88 -182 54 -13 -17 -24 -33 -25 -36 0 -3 56 -77 125
-163 69 -86 125 -159 125 -161 0 -6 -25 4 -157 64 -62 27 -113 48 -113 46 0
-10 166 -264 225 -344 83 -113 150 -175 232 -213 57 -27 81 -32 168 -36 145
-6 229 17 430 118 222 112 223 112 377 -21 42 -36 108 -82 146 -102 66 -35 75
-37 165 -37 113 0 148 13 251 89 38 28 76 51 85 51 9 0 54 -14 101 -30 139
-49 172 -40 273 73 38 43 73 77 79 77 5 0 49 -38 96 -84 48 -45 101 -90 117
-99 49 -25 139 -38 195 -27 77 15 117 41 218 140 l93 92 52 -4 c31 -3 90 -21
148 -47 171 -75 204 -71 321 36 158 145 200 147 466 20 214 -103 235 -110 322
-105 60 3 74 8 107 36 63 54 130 82 196 82 86 0 207 -34 337 -95 208 -97 251
-95 365 16 39 38 78 69 86 69 14 0 42 -32 93 -108 54 -79 146 -129 280 -153
134 -23 209 38 251 202 31 125 47 159 125 269 131 185 151 274 106 490 -14 69
-39 174 -57 234 -29 104 -129 381 -149 415 -6 10 -10 -84 -10 -258 l0 -275
-26 35 c-57 74 -75 132 -78 242 -2 79 -8 112 -24 147 -22 45 -22 46 -22 1011
0 1100 5 1032 -82 1123 -26 28 -48 59 -48 70 0 11 16 58 36 104 20 46 46 127
57 180 21 95 22 115 22 877 l0 780 -38 114 c-21 63 -51 169 -68 235 -53 210
-106 323 -206 438 -41 46 -41 48 -47 145 -4 54 -10 141 -15 193 l-9 95 -77 72
c-90 86 -277 237 -426 345 -568 414 -1210 660 -1754 675 -324 8 -371 8 -409
-5z m469 -82 c3 -5 27 -10 53 -10 61 0 260 -33 389 -64 525 -129 1113 -463
1617 -919 l60 -53 8 -160 c4 -87 13 -176 18 -196 6 -21 29 -59 52 -85 95 -109
142 -209 188 -393 17 -65 46 -170 65 -231 20 -62 40 -142 44 -178 5 -38 6
-378 1 -796 -8 -807 -6 -772 -77 -950 -55 -136 -47 -189 41 -274 22 -20 38
-48 43 -70 4 -20 7 -470 7 -1001 l1 -965 22 -50 c16 -38 23 -75 25 -151 3 -94
6 -107 42 -179 29 -59 61 -100 137 -179 l98 -101 1 119 c0 66 2 117 5 115 13
-14 55 -248 55 -308 0 -96 -25 -155 -119 -283 -79 -108 -84 -118 -140 -313
-12 -43 -30 -80 -45 -94 -23 -21 -32 -23 -85 -18 -76 8 -158 39 -196 74 -17
16 -48 54 -70 87 -44 66 -85 96 -133 96 -46 0 -78 -19 -147 -89 -77 -78 -90
-79 -247 -6 -133 62 -258 101 -351 111 -76 8 -175 -15 -227 -51 -121 -86 -105
-79 -173 -67 -41 7 -116 38 -224 91 -185 92 -226 105 -320 99 -91 -5 -147 -34
-244 -124 -47 -44 -87 -74 -100 -74 -12 0 -62 18 -111 40 -50 23 -117 48 -150
56 -101 26 -146 7 -268 -111 -100 -97 -136 -118 -205 -118 -68 0 -105 21 -200
113 -133 128 -180 129 -292 4 -77 -86 -86 -88 -195 -49 -98 35 -152 33 -212
-8 -146 -98 -143 -97 -235 -97 -104 0 -158 23 -259 113 -172 152 -238 157
-469 36 -297 -155 -499 -156 -645 -3 -41 45 -150 195 -145 201 2 2 44 -15 92
-37 48 -22 89 -39 90 -38 1 2 12 18 24 35 l22 33 -122 151 c-67 83 -117 150
-111 148 5 -2 48 -24 95 -49 47 -25 89 -42 92 -38 4 4 10 27 12 51 5 39 -6 73
-87 271 -51 125 -91 228 -89 230 2 1 105 -66 229 -151 l225 -154 2 88 c2 48
-19 783 -46 1633 -26 850 -45 1548 -42 1552 4 5 51 14 104 23 94 14 237 53
237 64 0 4 -66 46 -145 95 -80 48 -148 92 -151 98 -3 5 -5 270 -5 589 l2 580
29 73 c58 145 64 178 65 363 0 142 3 175 16 188 8 9 70 26 145 40 149 29 168
37 185 77 10 25 7 44 -30 156 -53 164 -58 190 -36 236 19 40 213 231 379 373
443 379 970 648 1436 733 63 12 153 29 200 39 65 14 133 19 287 20 125 1 204
-3 208 -9z"/>
<path d="M3155 7713 c-147 -18 -259 -38 -360 -62 -539 -132 -1054 -430 -1578
-914 -74 -69 -117 -116 -117 -128 0 -11 27 -106 60 -210 33 -104 60 -203 60
-219 0 -40 -18 -46 -177 -60 -70 -6 -148 -13 -172 -16 l-44 -6 6 -91 c9 -131
-6 -213 -56 -321 l-42 -91 -3 -577 -3 -577 28 -20 c15 -12 82 -54 148 -94 95
-58 121 -78 123 -98 4 -44 -10 -50 -159 -71 -106 -15 -149 -25 -163 -39 -19
-18 -19 -26 -3 -556 23 -713 74 -2394 83 -2708 4 -137 11 -260 15 -273 7 -19
15 -23 40 -20 31 3 34 7 137 246 77 175 108 238 113 224 4 -10 15 -65 24 -123
9 -57 20 -108 24 -112 10 -11 42 5 94 46 21 16 40 27 43 25 2 -3 9 -70 16
-149 6 -79 16 -149 22 -156 8 -9 103 -12 356 -13 190 -1 353 -1 362 -1 10 1
21 9 27 18 5 10 30 159 57 330 27 178 52 309 57 304 5 -5 49 -145 99 -312 49
-167 96 -313 103 -325 13 -20 25 -21 236 -27 194 -6 225 -5 246 9 29 18 48 60
58 124 12 81 78 312 86 298 8 -16 52 -202 74 -318 25 -128 2 -120 355 -120
269 0 300 2 318 18 11 9 106 152 210 317 256 407 245 391 252 368 4 -10 22
-135 40 -278 18 -143 36 -263 40 -268 3 -4 53 45 110 110 57 65 109 124 115
131 9 10 22 -10 60 -98 38 -87 54 -114 77 -126 29 -15 123 -31 356 -60 186
-23 188 -22 329 125 62 64 117 130 122 146 6 19 7 479 3 1245 -8 1368 1 1231
-89 1362 -39 58 -47 77 -51 126 -4 53 0 64 43 146 76 144 75 142 64 760 -5
298 -13 660 -17 806 l-7 265 -132 305 c-119 277 -192 455 -267 657 l-27 71
-322 299 c-177 165 -393 366 -480 447 -130 121 -160 145 -175 137 -9 -5 -60
-49 -112 -97 -131 -119 -249 -214 -285 -229 -46 -20 -274 -45 -466 -51 -96 -3
-184 -10 -195 -16 -12 -5 -34 -36 -49 -69 -32 -70 -65 -98 -197 -168 -53 -29
-98 -57 -101 -64 -9 -23 12 -264 28 -326 46 -177 120 -267 255 -309 78 -24
228 -80 244 -90 6 -4 -32 -9 -84 -12 l-95 -5 -3 -163 c-3 -187 -15 -207 -43
-74 -25 113 -67 187 -174 301 -147 158 -196 252 -216 413 -6 51 -13 99 -15
106 -2 8 -42 -25 -96 -81 -81 -83 -100 -97 -147 -111 -30 -9 -74 -16 -97 -16
-42 0 -45 -3 -112 -82 -110 -131 -175 -228 -242 -359 -78 -153 -96 -149 -50
11 39 132 74 190 194 323 l86 95 -53 22 c-81 35 -159 37 -269 7 -51 -14 -109
-29 -128 -33 -31 -6 -33 -5 -21 9 7 9 50 42 95 73 100 67 123 72 300 54 186
-19 256 -19 288 2 14 9 70 77 126 150 55 73 159 199 231 280 72 81 131 152
131 156 0 5 -40 14 -88 21 -168 21 -291 11 -377 -31 -22 -11 -89 -70 -149
-131 -113 -117 -121 -117 -64 -2 83 166 156 227 290 245 40 5 282 10 538 10
514 1 595 6 665 40 68 33 162 129 234 239 53 81 60 96 46 104 -47 26 -527 48
-670 30z m-1012 -2188 c214 -38 353 -172 365 -351 6 -88 -13 -156 -68 -244
-22 -36 -40 -72 -40 -81 0 -8 49 -82 110 -164 121 -164 131 -190 108 -280 -19
-71 -45 -79 -131 -37 -59 30 -69 39 -127 127 -35 53 -91 122 -126 154 -65 61
-182 128 -208 118 -10 -4 -16 -30 -20 -89 -17 -219 -17 -219 -46 -251 -38 -42
-79 -41 -126 4 -19 18 -39 49 -45 69 -5 19 -13 203 -17 409 -7 351 -9 374 -27
387 -14 10 -53 14 -148 14 -75 0 -137 5 -150 11 -65 34 -89 87 -63 138 13 24
28 34 69 45 112 32 553 46 690 21z m2302 -21 c48 -18 79 -51 108 -112 42 -90
50 -227 19 -328 -53 -173 -130 -232 -347 -265 -44 -7 -85 -17 -92 -22 -8 -6
-13 -66 -15 -197 -4 -220 -5 -225 -88 -225 -55 0 -96 24 -118 69 -19 38 -43
368 -44 609 -1 128 -5 200 -12 206 -6 5 -57 11 -114 13 -123 4 -132 11 -132
97 0 86 39 133 130 158 50 13 668 12 705 -3z m-1264 -35 c39 -27 63 -70 101
-179 l33 -95 -3 -360 c-4 -401 -2 -392 -72 -395 -81 -4 -110 0 -131 21 -20 20
-20 28 -17 397 l3 377 -32 57 c-37 64 -42 112 -17 159 26 52 78 59 135 18z"/>
<path d="M2020 5252 c-28 -28 -41 -51 -50 -95 -7 -31 -11 -59 -8 -62 16 -17
123 -25 204 -15 49 5 94 10 101 10 35 0 -57 159 -107 185 -52 27 -98 20 -140
-23z"/>
<path d="M4090 5262 c-19 -15 -21 -28 -23 -122 -1 -58 2 -116 7 -129 8 -22 11
-23 69 -17 33 3 85 17 114 31 114 52 145 127 79 189 -61 58 -200 85 -246 48z"/>
<path d="M4240 7561 c0 -5 192 -188 428 -406 235 -219 435 -412 445 -429 9
-17 43 -103 75 -191 32 -88 130 -326 217 -530 l159 -369 8 -491 c4 -269 9
-654 10 -855 3 -402 3 -408 -63 -526 -46 -82 -40 -132 30 -236 59 -88 61 -106
61 -618 0 -257 3 -893 7 -1414 l6 -948 142 143 143 144 6 940 c3 517 9 1121
12 1341 l7 402 -66 65 c-96 95 -102 153 -27 317 23 52 48 124 55 160 17 87 30
1357 14 1481 -24 199 -97 458 -171 609 -33 66 -59 101 -117 159 l-75 73 -11
162 c-12 189 -7 178 -147 311 -308 293 -700 550 -1040 681 -92 36 -108 40
-108 25z"/>
</g>
</svg>
