<?xml version="1.0" standalone="no"?>
<!DOCTYPE svg PUBLIC "-//W3C//DTD SVG 20010904//EN"
 "http://www.w3.org/TR/2001/REC-SVG-20010904/DTD/svg10.dtd">
<svg version="1.0" xmlns="http://www.w3.org/2000/svg"
 width="416.000000pt" height="416.000000pt" viewBox="0 0 416.000000 416.000000"
 preserveAspectRatio="xMidYMid meet">

<g transform="translate(0.000000,416.000000) scale(0.100000,-0.100000)"
fill="#000000" stroke="none">
<path d="M2451 3034 c-84 -23 -150 -63 -227 -139 -206 -203 -207 -519 -4 -726
207 -211 525 -213 736 -4 106 105 154 218 154 365 0 144 -43 250 -147 361
-103 109 -224 160 -378 158 -44 0 -104 -7 -134 -15z m231 -38 c249 -53 416
-288 378 -533 -36 -233 -234 -403 -470 -403 -139 0 -245 46 -341 147 -99 103
-133 200 -127 353 3 88 7 104 42 174 67 136 186 230 330 261 80 17 107 18 188
1z"/>
<path d="M2447 2834 c-4 -4 -7 -40 -7 -80 l0 -73 -77 -3 -78 -3 0 -145 0 -145
77 -3 77 -3 3 -77 3 -77 145 0 145 0 3 77 3 77 77 3 77 3 0 145 0 145 -77 3
-77 3 -3 77 -3 77 -141 3 c-77 1 -143 -1 -147 -4z m246 -101 c-3 -93 -3 -93
83 -93 l74 0 0 -105 0 -105 -69 0 c-86 0 -94 -8 -89 -95 l3 -65 -102 0 -103 0
0 68 c0 40 -5 73 -12 80 -7 7 -40 12 -80 12 l-68 0 0 105 0 104 78 3 77 3 3
73 3 72 102 0 102 0 -2 -57z"/>
<path d="M1086 2922 c-3 -5 5 -57 18 -115 35 -154 49 -305 44 -479 l-4 -153
-33 -45 c-45 -61 -61 -104 -68 -176 -11 -123 55 -237 172 -295 61 -30 76 -33
245 -45 98 -7 194 -20 212 -27 71 -30 526 -302 583 -348 33 -27 85 -62 115
-77 53 -26 60 -27 235 -28 101 0 211 -6 251 -14 39 -7 87 -10 106 -6 49 9 124
59 142 95 29 55 20 91 -62 236 l-28 50 -65 0 c-38 0 -72 5 -81 13 -8 7 -46 16
-84 21 -38 5 -85 15 -104 24 -56 24 -163 124 -249 232 -84 106 -136 162 -273
291 -78 74 -90 92 -140 195 -31 63 -105 235 -164 383 -60 147 -115 271 -122
273 -27 11 -37 -15 -20 -51 l17 -34 -252 -70 c-340 -96 -307 -90 -308 -56 0
16 -10 69 -22 119 -16 64 -27 91 -39 93 -9 2 -19 -1 -22 -6z m738 -318 c43
-107 76 -197 73 -200 -5 -5 -686 -214 -699 -214 -3 0 -4 60 -1 133 3 72 1 173
-5 222 -5 50 -8 91 -7 93 2 3 538 158 555 161 3 0 40 -87 84 -195z m120 -292
c34 -86 99 -186 164 -255 36 -37 63 -69 61 -70 -2 -2 -106 -85 -231 -185
l-227 -181 -33 13 c-18 8 -107 19 -198 25 -91 6 -186 18 -212 27 -64 21 -130
82 -158 146 -38 89 -15 224 48 282 15 13 715 239 762 245 3 1 13 -20 24 -47z
m336 -419 c34 -38 83 -95 108 -128 25 -33 62 -78 84 -100 l38 -41 -166 -133
c-153 -123 -168 -132 -191 -122 -20 9 -381 218 -391 226 -4 4 440 363 450 364
3 1 34 -29 68 -66z m375 -378 c28 -14 58 -25 68 -25 9 0 17 -5 17 -11 0 -6 21
-30 48 -54 46 -43 48 -44 102 -38 48 5 58 2 75 -17 l19 -21 -24 5 c-14 2 -37
7 -51 10 -29 6 -66 -15 -55 -32 4 -7 24 -13 44 -13 l37 -2 -35 -6 c-43 -8 -54
-38 -16 -46 14 -3 37 -7 51 -10 15 -3 30 -16 35 -30 7 -18 17 -25 37 -25 26 0
26 -1 7 -15 -10 -8 -26 -14 -34 -14 -19 0 -54 29 -63 52 -15 39 -112 50 -112
12 0 -15 8 -21 30 -23 21 -2 34 -11 42 -28 11 -23 10 -25 -5 -18 -9 4 -114 10
-232 13 -209 6 -216 7 -262 32 -47 27 -157 110 -157 119 0 3 72 62 161 133
l161 127 31 -25 c17 -14 54 -37 81 -50z m204 -57 c27 -17 32 -24 18 -26 -9 -2
-31 8 -48 22 -38 32 -19 34 30 4z m140 -35 c11 -23 10 -25 -3 -14 -9 7 -35 19
-58 26 l-43 14 46 0 c40 1 47 -2 58 -26z m46 -83 c4 -7 -3 -8 -22 -4 -38 9
-42 14 -10 14 14 0 29 -5 32 -10z m-13 -54 c24 -5 47 -40 35 -52 -6 -7 -50 18
-77 45 -22 21 -23 23 -5 18 11 -3 32 -8 47 -11z"/>
<path d="M1285 1552 c-50 -31 -58 -47 -51 -102 7 -49 6 -49 -34 -76 -40 -27
-54 -64 -24 -64 26 0 104 62 110 87 6 23 3 41 -11 75 -5 12 4 22 34 40 23 13
41 31 41 41 0 22 -27 22 -65 -1z"/>
<path d="M1397 1500 c-53 -33 -66 -65 -47 -111 12 -27 11 -32 -9 -45 -59 -42
-76 -62 -63 -75 28 -29 139 62 128 105 -3 12 -9 31 -12 43 -5 17 2 26 35 47
44 28 49 37 28 55 -10 8 -25 4 -60 -19z"/>
<path d="M1601 1446 c-8 -10 -6 -23 11 -53 l22 -41 -32 -36 c-18 -20 -32 -42
-32 -49 0 -17 46 -113 57 -120 5 -3 15 -2 23 3 11 7 9 18 -10 64 l-22 56 32
30 c37 35 37 60 0 123 -24 40 -32 44 -49 23z"/>
<path d="M1720 1425 c0 -9 9 -33 20 -54 l19 -38 -29 -27 c-36 -31 -37 -56 -9
-125 15 -35 27 -51 40 -51 25 0 25 30 -1 80 l-20 39 30 31 c36 37 38 68 8 121
-22 39 -58 54 -58 24z"/>
</g>
</svg>
