<?xml version='1.0' encoding='iso-8859-1'?>
<!DOCTYPE svg PUBLIC '-//W3C//DTD SVG 1.1//EN' 'http://www.w3.org/Graphics/SVG/1.1/DTD/svg11.dtd'>
<!-- Uploaded to: SVG Repo, www.svgrepo.com, Generator: SVG Repo Mixer Tools -->
<svg fill="#000000" height="800px" width="800px" version="1.1" xmlns="http://www.w3.org/2000/svg" viewBox="0 0 295.564 295.564" xmlns:xlink="http://www.w3.org/1999/xlink" enable-background="new 0 0 295.564 295.564">
  <g>
    <path d="m199.365,191.064c-15.301,0-27.75-12.449-27.75-27.75s12.449-27.75 27.75-27.75h71.75c0-4.355 0-8.687 0-12.976 0-3.346-2.147-6.319-5.324-7.367-22.055-7.277-26.577-50.603-19.36-75.757 0.672-2.341 0.204-4.861-1.261-6.807-1.465-1.945-3.76-3.093-6.195-3.093h-7.529l-21.992,51.106c-4.388,10.196-14.396,16.785-25.498,16.785-3.782,0-7.47-0.762-10.961-2.264-7.982-3.435-13.527-10.195-15.726-17.969-3.114,0.217-6.275,0.342-9.487,0.342-3.212,0-6.374-0.125-9.488-0.342-2.198,7.774-7.744,14.534-15.726,17.969-3.491,1.502-7.179,2.264-10.961,2.264-11.101,0-21.11-6.589-25.498-16.785l-21.991-51.106h-7.528c-2.436,0-4.73,1.145-6.196,3.09-1.465,1.946-1.932,4.468-1.26,6.809 7.217,25.155 2.695,68.48-19.36,75.757-3.18,1.049-5.324,4.018-5.324,7.367 0,4.289 0,8.621 0,12.976h71.75c15.301,0 27.75,12.449 27.75,27.75s-12.449,27.75-27.75,27.75h-71.75c0,6.848 0,13.542 0,20h71.75c15.301,0 27.75,12.449 27.75,27.75s-12.449,27.75-27.75,27.75h-71.75c0,9.334 0,15.506 0,17.271 0,6.478 5.251,11.729 11.729,11.729h111.604 111.604c6.478,0 11.729-5.251 11.729-11.729 0-1.765 0-7.937 0-17.271h-71.75c-15.301,0-27.75-12.449-27.75-27.75s12.449-27.75 27.75-27.75h71.75c0-6.458 0-13.152 0-20h-71.751z"/>
    <path d="m111.949,163.314c0-8.699-7.052-15.75-15.75-15.75h-71.75c0,10.554 0,21.142 0,31.5h71.75c8.698,0 15.75-7.052 15.75-15.75z"/>
    <path d="M97.133,75.926c2.565,5.961,8.372,9.528,14.475,9.528c2.077,0,4.189-0.413,6.218-1.287   c7.99-3.438,11.68-12.703,8.242-20.693L100.772,4.692C99.509,1.757,96.649,0,93.644,0c-1.023,0-2.063,0.204-3.062,0.634   L75.896,6.953c-3.935,1.693-5.752,6.256-4.059,10.19L97.133,75.926z"/>
    <path d="m111.949,238.814c0-8.699-7.052-15.75-15.75-15.75h-71.75c0,11.761 0,22.455 0,31.5h71.75c8.698,0 15.75-7.052 15.75-15.75z"/>
    <path d="m183.615,163.314c0,8.699 7.051,15.75 15.75,15.75h71.75c0-10.358 0-20.946 0-31.5h-71.75c-8.698,0-15.75,7.051-15.75,15.75z"/>
    <path d="m177.738,84.168c2.029,0.873 4.141,1.287 6.218,1.287 6.103,0 11.91-3.567 14.475-9.528l25.295-58.783c1.693-3.935-0.124-8.497-4.059-10.19l-14.686-6.319c-0.998-0.431-2.038-0.635-3.061-0.635-3.005,0-5.865,1.757-7.128,4.692l-25.295,58.783c-3.439,7.99 0.251,17.255 8.241,20.693z"/>
    <path d="m183.615,238.814c0,8.699 7.051,15.75 15.75,15.75h71.75c0-9.045 0-19.739 0-31.5h-71.75c-8.698,0-15.75,7.051-15.75,15.75z"/>
  </g>
</svg>