<?xml version="1.0" standalone="no"?>
<!DOCTYPE svg PUBLIC "-//W3C//DTD SVG 20010904//EN"
 "http://www.w3.org/TR/2001/REC-SVG-20010904/DTD/svg10.dtd">
<svg version="1.0" xmlns="http://www.w3.org/2000/svg"
 width="256.000000pt" height="256.000000pt" viewBox="0 0 256.000000 256.000000"
 preserveAspectRatio="xMidYMid meet">

<g transform="translate(0.000000,256.000000) scale(0.100000,-0.100000)"
fill="#000000" stroke="none">
<path d="M485 2536 c-85 -40 -128 -108 -127 -201 1 -63 12 -93 54 -140 43 -49
99 -75 166 -75 99 0 180 62 208 158 41 142 -67 282 -217 282 -19 0 -56 -11
-84 -24z"/>
<path d="M320 2073 c-31 -12 -71 -46 -84 -71 -17 -33 -149 -772 -148 -825 1
-50 21 -87 57 -108 17 -10 154 -47 305 -84 l275 -66 215 -213 c118 -118 225
-219 237 -225 12 -6 40 -11 62 -11 37 0 43 -4 86 -60 l46 -60 40 32 c21 17 69
41 104 53 52 18 71 30 94 62 28 39 86 90 128 112 20 10 22 17 16 59 -13 98
-31 109 -123 77 -23 -8 -44 -15 -45 -15 -2 0 -15 36 -30 79 -25 77 -37 91 -75
91 -15 0 -33 43 -98 240 -44 132 -76 240 -71 240 17 0 68 92 74 135 8 52 -15
115 -42 115 -13 0 -22 -13 -32 -45 -24 -83 -100 -134 -225 -151 -28 -4 -46
-12 -46 -20 0 -20 55 -54 110 -67 l50 -12 77 -232 77 -232 -23 -25 -23 -25 26
-78 c14 -43 26 -82 26 -86 0 -5 -108 102 -240 236 -132 134 -252 250 -267 256
-16 6 -140 34 -277 61 -137 27 -251 51 -253 53 -2 2 77 7 174 11 98 4 179 8
179 9 1 1 4 18 8 38 l7 37 -49 12 c-79 19 -110 53 -217 242 -54 95 -100 178
-103 183 -3 6 49 -46 114 -115 200 -211 198 -210 247 -210 64 0 468 78 494 96
70 45 46 171 -36 189 -16 3 -109 -9 -217 -29 l-189 -36 -137 137 c-76 75 -136
139 -134 140 2 2 70 -37 152 -87 l149 -91 9 46 c11 59 1 107 -29 143 -33 39
-55 47 -221 77 -143 25 -176 28 -204 18z"/>
<path d="M363 859 c3 -30 11 -103 18 -164 l12 -110 -67 -217 c-36 -119 -66
-226 -66 -238 0 -63 64 -130 125 -130 36 0 88 30 109 62 25 39 156 483 156
530 -1 45 -26 248 -32 252 -1 2 -52 15 -113 30 -60 15 -119 29 -129 33 -18 5
-19 1 -13 -48z"/>
<path d="M1870 546 c-26 -6 -63 -22 -83 -35 -44 -27 -115 -106 -123 -135 -4
-17 -17 -24 -65 -33 -114 -22 -187 -87 -215 -192 -13 -53 -5 -128 17 -142 8
-5 247 -9 531 -9 l518 0 15 24 c15 22 15 28 0 63 -29 69 -94 120 -176 137 -23
5 -27 12 -32 60 -13 126 -103 227 -234 261 -67 18 -92 18 -153 1z"/>
</g>
</svg>
