<svg xmlns="http://www.w3.org/2000/svg" viewBox="0 0 24 24" fill="currentColor">
  <path d="M13.49 5.48c1.1 0 2-.9 2-2s-.9-2-2-2-2 .9-2 2 .9 2 2 2zm5.71 11.2c-1.43.51-2.72.84-4.07.94V13.4l1.7-1.49c.71-.63 1.13-1.57 1.13-2.51 0-.53-.14-1.05-.38-1.5l-2.09-3.73c-.51-.9-1.47-1.5-2.49-1.17-1.2.38-1.58 1.47-1.04 2.39.06.1.41.78.84 1.59L11 8.5v3.13c-1.37.1-2.74.55-3.96 1.34L5 14.22c-.55.41-.56 1.19-.06 1.62.38.32.87.37 1.28.1l1.99-1.21c.83-.51 1.75-.84 2.79-1.01V17c0 1.1.9 2 2 2s2-.9 2-2v-4.08c1.05.11 2.03.38 3.13.89.82.38 1.79-.09 2.01-.97.18-.68-.19-1.4-.94-1.66z"/>
</svg>