<?xml version="1.0" encoding="iso-8859-1"?>
<!-- Uploaded to: SVG Repo, www.svgrepo.com, Generator: SVG Repo Mixer Tools -->
<!DOCTYPE svg PUBLIC "-//W3C//DTD SVG 1.1//EN" "http://www.w3.org/Graphics/SVG/1.1/DTD/svg11.dtd">
<svg fill="#000000" version="1.1" id="Capa_1" xmlns="http://www.w3.org/2000/svg" xmlns:xlink="http://www.w3.org/1999/xlink" 
	 width="800px" height="800px" viewBox="0 0 27.385 27.385"
	 xml:space="preserve">
<g>
	<g>
		<path d="M26.385,1.024H1c-0.553,0-1,0.447-1,1v23.337c0,0.553,0.447,1,1,1h25.385c0.553,0,1-0.447,1-1V2.024
			C27.385,1.472,26.938,1.024,26.385,1.024z M25.385,3.024v3.661H2V3.024H25.385z M2,24.361V8.685h23.385v15.676H2z"/>
		<path d="M19.939,12.688H9.147l-0.723-1.996c-0.001-0.004-0.005-0.006-0.006-0.01c-0.015-0.038-0.039-0.07-0.063-0.104
			c-0.015-0.021-0.025-0.044-0.042-0.063c-0.024-0.025-0.056-0.042-0.085-0.062c-0.023-0.016-0.045-0.036-0.07-0.048
			c-0.028-0.012-0.06-0.015-0.09-0.021c-0.034-0.009-0.066-0.02-0.101-0.021c-0.005,0-0.009-0.003-0.014-0.003H5.628
			c-0.276,0-0.5,0.224-0.5,0.5c0,0.276,0.224,0.5,0.5,0.5h1.975l0.715,1.973l1.863,6.679c0.061,0.215,0.257,0.364,0.481,0.364h7.41
			c0.225,0,0.421-0.149,0.48-0.364l1.866-6.689c0.042-0.151,0.013-0.313-0.083-0.438C20.244,12.763,20.098,12.688,19.939,12.688z"/>
		<circle cx="12.592" cy="22.034" r="0.964"/>
		<circle cx="16.146" cy="22.034" r="0.964"/>
	</g>
</g>
</svg>